<svg width="18" height="14" viewBox="0 0 18 14" fill="none" xmlns="http://www.w3.org/2000/svg">
<path d="M11.9688 10.9844L11.0703 7.58594L13.8047 5.32031L10.2891 5.125L9 1.84375L7.71094 5.125L4.15625 5.32031L6.92969 7.58594L6.03125 10.9844L9 9.07031L11.9688 10.9844ZM16.1484 5.82812C15.8359 6.16667 15.6797 6.55729 15.6797 7C15.6797 7.44271 15.8359 7.83333 16.1484 8.17188C16.487 8.51042 16.8776 8.67969 17.3203 8.67969V12C17.3203 12.4427 17.151 12.8333 16.8125 13.1719C16.5 13.5104 16.1224 13.6797 15.6797 13.6797H2.32031C1.8776 13.6797 1.48698 13.5104 1.14844 13.1719C0.835938 12.8333 0.679688 12.4427 0.679688 12V8.67969C1.14844 8.67969 1.53906 8.52344 1.85156 8.21094C2.16406 7.8724 2.32031 7.46875 2.32031 7C2.32031 6.55729 2.15104 6.16667 1.8125 5.82812C1.5 5.48958 1.1224 5.32031 0.679688 5.32031V2C0.679688 1.55729 0.835938 1.16667 1.14844 0.828125C1.48698 0.489583 1.8776 0.320312 2.32031 0.320312H15.6797C16.1224 0.320312 16.5 0.489583 16.8125 0.828125C17.151 1.16667 17.3203 1.55729 17.3203 2V5.32031C16.8776 5.32031 16.487 5.48958 16.1484 5.82812Z" fill="#3A3335"/>
</svg>
