<svg width="11" height="19" viewBox="0 0 11 19" fill="none" xmlns="http://www.w3.org/2000/svg">
<path d="M3.16406 6.42188L0.820312 18.1797H2.57812L4.10156 11.5L5.82031 13.1797V18.1797H7.5V11.9297L5.74219 10.25L6.25 7.75C7.44792 9.13021 8.97135 9.82031 10.8203 9.82031V8.17969C9.20573 8.17969 8.02083 7.5026 7.26562 6.14844L6.40625 4.82031C6.01562 4.27344 5.54688 4 5 4C4.92188 4 4.80469 4.01302 4.64844 4.03906C4.51823 4.0651 4.41406 4.07812 4.33594 4.07812L0 5.91406V9.82031H1.67969V7.00781L3.16406 6.42188ZM7.42188 3.10156C7.08333 3.41406 6.69271 3.57031 6.25 3.57031C5.80729 3.57031 5.41667 3.41406 5.07812 3.10156C4.73958 2.76302 4.57031 2.3724 4.57031 1.92969C4.57031 1.48698 4.73958 1.09635 5.07812 0.757812C5.41667 0.419271 5.80729 0.25 6.25 0.25C6.69271 0.25 7.08333 0.419271 7.42188 0.757812C7.76042 1.09635 7.92969 1.48698 7.92969 1.92969C7.92969 2.3724 7.76042 2.76302 7.42188 3.10156Z" fill="#3A3335"/>
</svg>
