<svg width="14" height="17" viewBox="0 0 14 17" fill="none" xmlns="http://www.w3.org/2000/svg">
<path d="M12 8.17969V4H2V8.17969H12ZM9.85156 12.8281C10.0859 13.0625 10.3854 13.1797 10.75 13.1797C11.1146 13.1797 11.4141 13.0625 11.6484 12.8281C11.8828 12.5677 12 12.2682 12 11.9297C12 11.5911 11.8828 11.3047 11.6484 11.0703C11.4141 10.8099 11.1146 10.6797 10.75 10.6797C10.3854 10.6797 10.0859 10.8099 9.85156 11.0703C9.61719 11.3047 9.5 11.5911 9.5 11.9297C9.5 12.2682 9.61719 12.5677 9.85156 12.8281ZM2.35156 12.8281C2.58594 13.0625 2.88542 13.1797 3.25 13.1797C3.61458 13.1797 3.91406 13.0625 4.14844 12.8281C4.38281 12.5677 4.5 12.2682 4.5 11.9297C4.5 11.5911 4.38281 11.3047 4.14844 11.0703C3.91406 10.8099 3.61458 10.6797 3.25 10.6797C2.88542 10.6797 2.58594 10.8099 2.35156 11.0703C2.11719 11.3047 2 11.5911 2 11.9297C2 12.2682 2.11719 12.5677 2.35156 12.8281ZM0.320312 12.3203V4C0.320312 2.67188 0.893229 1.78646 2.03906 1.34375C3.1849 0.901042 4.83854 0.679688 7 0.679688C9.16146 0.679688 10.8151 0.901042 11.9609 1.34375C13.1068 1.78646 13.6797 2.67188 13.6797 4V12.3203C13.6797 13.0495 13.3932 13.6745 12.8203 14.1953V15.6797C12.8203 15.9141 12.7422 16.1094 12.5859 16.2656C12.4297 16.4219 12.2344 16.5 12 16.5H11.1797C10.9453 16.5 10.737 16.4219 10.5547 16.2656C10.3984 16.1094 10.3203 15.9141 10.3203 15.6797V14.8203H3.67969V15.6797C3.67969 15.9141 3.58854 16.1094 3.40625 16.2656C3.25 16.4219 3.05469 16.5 2.82031 16.5H2C1.76562 16.5 1.57031 16.4219 1.41406 16.2656C1.25781 16.1094 1.17969 15.9141 1.17969 15.6797V14.1953C0.606771 13.6745 0.320312 13.0495 0.320312 12.3203Z" fill="#3A3335"/>
</svg>
