<svg width="16" height="18" viewBox="0 0 16 18" fill="none" xmlns="http://www.w3.org/2000/svg">
<path d="M0.5 17.3203V0.679688L1.75 1.92969L3 0.679688L4.25 1.92969L5.5 0.679688L6.75 1.92969L8 0.679688L9.25 1.92969L10.5 0.679688L11.75 1.92969L13 0.679688L14.25 1.92969L15.5 0.679688V17.3203L14.25 16.0703L13 17.3203L11.75 16.0703L10.5 17.3203L9.25 16.0703L8 17.3203L6.75 16.0703L5.5 17.3203L4.25 16.0703L3 17.3203L1.75 16.0703L0.5 17.3203ZM13 6.5V4.82031H3V6.5H13ZM13 9.82031V8.17969H3V9.82031H13ZM13 13.1797V11.5H3V13.1797H13Z" fill="#3A3335"/>
</svg>
