<svg width="16" height="16" viewBox="0 0 16 16" fill="none" xmlns="http://www.w3.org/2000/svg">
<path d="M13.8203 0.5C14.263 0.5 14.6536 0.669271 14.9922 1.00781C15.3307 1.34635 15.5 1.73698 15.5 2.17969V13.8203C15.5 14.263 15.3307 14.6536 14.9922 14.9922C14.6536 15.3307 14.263 15.5 13.8203 15.5H2.17969C1.71094 15.5 1.30729 15.3307 0.96875 14.9922C0.65625 14.6536 0.5 14.263 0.5 13.8203V10.5H2.17969V13.8203H13.8203V2.17969H2.17969V5.5H0.5V2.17969C0.5 1.73698 0.65625 1.34635 0.96875 1.00781C1.30729 0.669271 1.71094 0.5 2.17969 0.5H13.8203ZM6.39844 11.0078L8.54688 8.82031H0.5V7.17969H8.54688L6.39844 4.99219L7.57031 3.82031L11.75 8L7.57031 12.1797L6.39844 11.0078Z" fill="#3A3335"/>
</svg>
