<svg width="17" height="18" viewBox="0 0 17 18" fill="none" xmlns="http://www.w3.org/2000/svg">
<path d="M12.2812 15.3281C12.5417 15.5625 12.8411 15.6797 13.1797 15.6797C13.5182 15.6797 13.8047 15.5625 14.0391 15.3281C14.2995 15.0677 14.4297 14.7682 14.4297 14.4297C14.4297 14.0911 14.2995 13.8047 14.0391 13.5703C13.8047 13.3099 13.5182 13.1797 13.1797 13.1797C12.8411 13.1797 12.5417 13.3099 12.2812 13.5703C12.0469 13.8047 11.9297 14.0911 11.9297 14.4297C11.9297 14.7682 12.0469 15.0677 12.2812 15.3281ZM4.78125 15.3281C5.04167 15.5625 5.34115 15.6797 5.67969 15.6797C6.01823 15.6797 6.30469 15.5625 6.53906 15.3281C6.79948 15.0677 6.92969 14.7682 6.92969 14.4297C6.92969 14.0911 6.79948 13.8047 6.53906 13.5703C6.30469 13.3099 6.01823 13.1797 5.67969 13.1797C5.34115 13.1797 5.04167 13.3099 4.78125 13.5703C4.54688 13.8047 4.42969 14.0911 4.42969 14.4297C4.42969 14.7682 4.54688 15.0677 4.78125 15.3281ZM15.0938 12.2422C15.7448 12.8411 16.0703 13.5703 16.0703 14.4297C16.0703 15.237 15.7839 15.9271 15.2109 16.5C14.6641 17.0469 13.987 17.3203 13.1797 17.3203C12.4505 17.3203 11.8125 17.0859 11.2656 16.6172C10.7188 16.1224 10.3932 15.5234 10.2891 14.8203H8.53125C8.42708 15.5234 8.10156 16.1224 7.55469 16.6172C7.03385 17.0859 6.40885 17.3203 5.67969 17.3203C4.8724 17.3203 4.18229 17.0469 3.60938 16.5C3.03646 15.9271 2.75 15.237 2.75 14.4297C2.75 13.2839 3.25781 12.4245 4.27344 11.8516L2.51562 8.17969H0.679688V6.5H3.57031L4.35156 8.17969H16.5C16.5 9.66406 16.0312 11.0182 15.0938 12.2422ZM9.82031 0.679688C11.6693 0.679688 13.2448 1.33073 14.5469 2.63281C15.849 3.9349 16.5 5.4974 16.5 7.32031H9.82031V0.679688Z" fill="#3A3335"/>
</svg>
