<svg width="15" height="18" viewBox="0 0 15 18" fill="none" xmlns="http://www.w3.org/2000/svg">
<path d="M11.9219 3.53125C11.6094 3.84375 11.2188 4 10.75 4C10.2812 4 9.8776 3.84375 9.53906 3.53125C9.22656 3.19271 9.07031 2.78906 9.07031 2.32031C9.07031 1.85156 9.22656 1.46094 9.53906 1.14844C9.8776 0.835938 10.2812 0.679688 10.75 0.679688C11.2188 0.679688 11.6094 0.835938 11.9219 1.14844C12.2604 1.46094 12.4297 1.85156 12.4297 2.32031C12.4297 2.78906 12.2604 3.19271 11.9219 3.53125ZM4.42188 3.53125C4.10938 3.84375 3.71875 4 3.25 4C2.78125 4 2.3776 3.84375 2.03906 3.53125C1.72656 3.19271 1.57031 2.78906 1.57031 2.32031C1.57031 1.85156 1.72656 1.46094 2.03906 1.14844C2.3776 0.835938 2.78125 0.679688 3.25 0.679688C3.71875 0.679688 4.10938 0.835938 4.42188 1.14844C4.76042 1.46094 4.92969 1.85156 4.92969 2.32031C4.92969 2.78906 4.76042 3.19271 4.42188 3.53125ZM12 17.3203H9.5V12.3203H7L9.10938 5.99219C9.21354 5.67969 9.42188 5.40625 9.73438 5.17188C10.0469 4.9375 10.3724 4.82031 10.7109 4.82031H10.7891C11.1276 4.82031 11.4531 4.9375 11.7656 5.17188C12.0781 5.40625 12.2865 5.67969 12.3906 5.99219L14.5 12.3203H12V17.3203ZM1.57031 17.3203V11.0703H0.320312V6.5C0.320312 6.05729 0.489583 5.66667 0.828125 5.32812C1.16667 4.98958 1.55729 4.82031 2 4.82031H4.5C4.94271 4.82031 5.33333 4.98958 5.67188 5.32812C6.01042 5.66667 6.17969 6.05729 6.17969 6.5V11.0703H4.92969V17.3203H1.57031Z" fill="#3A3335"/>
</svg>
