<svg width="20" height="18" viewBox="0 0 20 18" fill="none" xmlns="http://www.w3.org/2000/svg">
<path d="M19.9609 6.57812C19.987 6.60417 20 6.64323 20 6.69531C20 6.72135 19.987 6.7474 19.9609 6.77344L18.9844 8.02344C18.9323 8.07552 18.8802 8.10156 18.8281 8.10156L18.2422 7.98438L17.9688 8.84375C17.9167 8.94792 17.8255 9 17.6953 9C17.5911 9 17.513 8.94792 17.4609 8.84375L16.9141 7.67188L16.0156 7.47656L14.1797 11.8516L14.8438 17.1641C14.8438 17.2682 14.7917 17.3203 14.6875 17.3203H13.9062C13.8542 17.3203 13.8021 17.2812 13.75 17.2031L12.9688 14.0391L12.5781 13.375L11.6016 17.2031C11.6016 17.2812 11.5495 17.3203 11.4453 17.3203H10.625C10.5208 17.3203 10.4688 17.2682 10.4688 17.1641L11.3672 11.8906H6.09375L4.72656 14.4688L5.03906 17.125C5.09115 17.2552 5.03906 17.3203 4.88281 17.3203H4.10156C4.02344 17.3203 3.97135 17.2943 3.94531 17.2422L2.85156 13.2578L1.52344 14.7812L1.75781 17.125C1.8099 17.2552 1.75781 17.3203 1.60156 17.3203H0.742188C0.638021 17.3203 0.585938 17.2943 0.585938 17.2422L0.078125 15.0547L0.898438 11.8516V6.22656C0.299479 5.99219 0 5.60156 0 5.05469H10.7031C11.9531 5.08073 13.1901 4.65104 14.4141 3.76562C14.2057 3.19271 14.2839 2.72396 14.6484 2.35938C15.3776 2.88021 15.8464 3.20573 16.0547 3.33594C16.237 3.4401 16.3802 3.42708 16.4844 3.29688C16.6146 3.14062 16.6536 2.97135 16.6016 2.78906C16.3672 2.0599 15.7812 1.51302 14.8438 1.14844C14.8177 1.14844 14.7786 1.13542 14.7266 1.10938C14.4141 1.03125 14.2839 0.927083 14.3359 0.796875C14.3359 0.71875 14.388 0.679688 14.4922 0.679688C15.2474 0.783854 15.8854 1.08333 16.4062 1.57812C16.9531 2.04688 17.3177 2.5026 17.5 2.94531L17.6562 3.0625C17.7344 3.16667 17.8125 3.27083 17.8906 3.375C17.9948 3.47917 18.0729 3.63542 18.125 3.84375C18.2031 4.02604 18.2292 4.22135 18.2031 4.42969C18.2031 4.5599 18.2292 4.65104 18.2812 4.70312L19.9609 6.57812Z" fill="#3A3335"/>
</svg>
