<svg width="61" height="12" viewBox="0 0 61 12" fill="none" xmlns="http://www.w3.org/2000/svg">
<path d="M0.232955 11V0.818182H3.79261C4.50189 0.818182 5.08688 0.940814 5.54759 1.18608C6.00829 1.42803 6.35133 1.7545 6.5767 2.16548C6.80208 2.57315 6.91477 3.02557 6.91477 3.52273C6.91477 3.96023 6.83688 4.3215 6.68111 4.60653C6.52865 4.89157 6.32647 5.11695 6.07457 5.28267C5.82599 5.44839 5.55587 5.57102 5.2642 5.65057V5.75C5.57576 5.76989 5.88897 5.87926 6.20384 6.07812C6.5187 6.27699 6.7822 6.56203 6.99432 6.93324C7.20644 7.30445 7.3125 7.75852 7.3125 8.29545C7.3125 8.80587 7.1965 9.26491 6.96449 9.67259C6.73248 10.0803 6.36624 10.4034 5.86577 10.642C5.36529 10.8807 4.71402 11 3.91193 11H0.232955ZM1.46591 9.90625H3.91193C4.71733 9.90625 5.28906 9.75047 5.62713 9.43892C5.96851 9.12405 6.1392 8.7429 6.1392 8.29545C6.1392 7.95076 6.05137 7.63258 5.87571 7.34091C5.70005 7.04593 5.44981 6.81061 5.125 6.63494C4.80019 6.45597 4.41572 6.36648 3.97159 6.36648H1.46591V9.90625ZM1.46591 5.29261H3.75284C4.12405 5.29261 4.45881 5.2197 4.7571 5.07386C5.05871 4.92803 5.29735 4.72254 5.47301 4.45739C5.65199 4.19223 5.74148 3.88068 5.74148 3.52273C5.74148 3.07528 5.5857 2.69579 5.27415 2.38423C4.9626 2.06937 4.46875 1.91193 3.79261 1.91193H1.46591V5.29261ZM9.07933 11V3.36364H10.2129V4.51705H10.2924C10.4316 4.1392 10.6835 3.83262 11.0481 3.5973C11.4127 3.36198 11.8237 3.24432 12.281 3.24432C12.3672 3.24432 12.4749 3.24597 12.6042 3.24929C12.7335 3.2526 12.8312 3.25758 12.8975 3.2642V4.45739C12.8577 4.44744 12.7666 4.43253 12.6241 4.41264C12.4849 4.38944 12.3374 4.37784 12.1816 4.37784C11.8104 4.37784 11.479 4.45573 11.1873 4.61151C10.8989 4.76397 10.6702 4.97609 10.5012 5.24787C10.3355 5.51634 10.2526 5.82292 10.2526 6.16761V11H9.07933ZM17.1576 11.1591C16.4218 11.1591 15.7871 10.9967 15.2535 10.6719C14.7232 10.3438 14.3138 9.88636 14.0255 9.29972C13.7405 8.70975 13.5979 8.02367 13.5979 7.24148C13.5979 6.45928 13.7405 5.76989 14.0255 5.1733C14.3138 4.57339 14.7149 4.10606 15.2286 3.77131C15.7457 3.43324 16.3489 3.2642 17.0383 3.2642C17.436 3.2642 17.8288 3.33049 18.2165 3.46307C18.6043 3.59564 18.9573 3.81108 19.2755 4.10938C19.5937 4.40436 19.8472 4.79545 20.0362 5.28267C20.2251 5.76989 20.3195 6.36979 20.3195 7.08239V7.57955H14.4332V6.56534H19.1263C19.1263 6.13447 19.0402 5.75 18.8678 5.41193C18.6988 5.07386 18.4568 4.80705 18.142 4.61151C17.8304 4.41596 17.4625 4.31818 17.0383 4.31818C16.571 4.31818 16.1666 4.43419 15.8252 4.66619C15.4871 4.89489 15.227 5.19318 15.0447 5.56108C14.8624 5.92898 14.7712 6.32339 14.7712 6.74432V7.42045C14.7712 7.99716 14.8707 8.48603 15.0695 8.88707C15.2717 9.2848 15.5518 9.58807 15.9097 9.79688C16.2677 10.0024 16.6836 10.1051 17.1576 10.1051C17.4658 10.1051 17.7442 10.062 17.9928 9.97585C18.2447 9.88636 18.4618 9.75379 18.6441 9.57812C18.8264 9.39915 18.9673 9.17708 19.0667 8.91193L20.2002 9.23011C20.0809 9.61458 19.8804 9.95265 19.5987 10.2443C19.3169 10.5327 18.9689 10.758 18.5546 10.9205C18.1403 11.0795 17.6746 11.1591 17.1576 11.1591ZM24.2515 11.179C23.7676 11.179 23.3284 11.0878 22.934 10.9055C22.5396 10.7199 22.2264 10.4531 21.9944 10.1051C21.7624 9.75379 21.6464 9.32955 21.6464 8.83239C21.6464 8.39489 21.7326 8.04025 21.9049 7.76847C22.0772 7.49337 22.3076 7.27794 22.596 7.12216C22.8843 6.96638 23.2025 6.85038 23.5505 6.77415C23.9018 6.6946 24.2548 6.63163 24.6094 6.58523C25.0735 6.52557 25.4496 6.48082 25.738 6.45099C26.0297 6.41785 26.2418 6.36316 26.3744 6.28693C26.5103 6.2107 26.5782 6.07812 26.5782 5.8892V5.84943C26.5782 5.3589 26.444 4.97775 26.1755 4.70597C25.9103 4.43419 25.5076 4.2983 24.9674 4.2983C24.4073 4.2983 23.9681 4.42093 23.6499 4.66619C23.3317 4.91146 23.108 5.1733 22.9788 5.4517L21.8651 5.05398C22.064 4.58996 22.3291 4.22869 22.6606 3.97017C22.9953 3.70833 23.3599 3.52604 23.7543 3.4233C24.1521 3.31723 24.5432 3.2642 24.9276 3.2642C25.1729 3.2642 25.4546 3.29403 25.7728 3.35369C26.0943 3.41004 26.4042 3.5277 26.7025 3.70668C27.0041 3.88565 27.2543 4.15578 27.4532 4.51705C27.6521 4.87831 27.7515 5.36222 27.7515 5.96875V11H26.5782V9.96591H26.5185C26.439 10.1316 26.3064 10.3089 26.1208 10.4979C25.9352 10.6868 25.6883 10.8475 25.38 10.9801C25.0718 11.1127 24.6956 11.179 24.2515 11.179ZM24.4305 10.125C24.8945 10.125 25.2856 10.0339 25.6038 9.85156C25.9253 9.66927 26.1672 9.43395 26.3296 9.1456C26.4953 8.85724 26.5782 8.55398 26.5782 8.2358V7.16193C26.5285 7.22159 26.4191 7.27628 26.2501 7.32599C26.0844 7.3724 25.8921 7.41383 25.6734 7.45028C25.4579 7.48343 25.2475 7.51326 25.042 7.53977C24.8398 7.56297 24.6757 7.58286 24.5498 7.59943C24.2449 7.6392 23.9598 7.70384 23.6947 7.79332C23.4328 7.8795 23.2207 8.01042 23.0583 8.18608C22.8992 8.35843 22.8197 8.59375 22.8197 8.89205C22.8197 9.29972 22.9705 9.60795 23.2721 9.81676C23.577 10.0223 23.9631 10.125 24.4305 10.125ZM30.8868 8.21591L30.8669 6.7642H31.1055L34.4464 3.36364H35.8981L32.3385 6.96307H32.239L30.8868 8.21591ZM29.793 11V0.818182H30.9663V11H29.793ZM34.6453 11L31.6623 7.22159L32.4976 6.40625L36.1368 11H34.6453ZM40.7088 3.36364V4.35795H36.5923V3.36364H40.7088ZM37.8253 11V2.30966C37.8253 1.87216 37.928 1.50758 38.1335 1.21591C38.339 0.924242 38.6058 0.705492 38.9339 0.559658C39.2621 0.413825 39.6084 0.340908 39.973 0.340908C40.2614 0.340908 40.4967 0.364109 40.679 0.410511C40.8613 0.456912 40.9972 0.499999 41.0866 0.539772L40.7486 1.55398C40.6889 1.53409 40.6061 1.50923 40.5 1.4794C40.3973 1.44957 40.2614 1.43466 40.0923 1.43466C39.7045 1.43466 39.4245 1.53243 39.2521 1.72798C39.0831 1.92353 38.9986 2.21023 38.9986 2.58807V11H37.8253ZM44.2816 11.179C43.7977 11.179 43.3585 11.0878 42.9641 10.9055C42.5697 10.7199 42.2565 10.4531 42.0245 10.1051C41.7925 9.75379 41.6765 9.32955 41.6765 8.83239C41.6765 8.39489 41.7626 8.04025 41.935 7.76847C42.1073 7.49337 42.3377 7.27794 42.626 7.12216C42.9144 6.96638 43.2326 6.85038 43.5806 6.77415C43.9319 6.6946 44.2849 6.63163 44.6395 6.58523C45.1035 6.52557 45.4797 6.48082 45.7681 6.45099C46.0597 6.41785 46.2719 6.36316 46.4044 6.28693C46.5403 6.2107 46.6083 6.07812 46.6083 5.8892V5.84943C46.6083 5.3589 46.474 4.97775 46.2056 4.70597C45.9404 4.43419 45.5377 4.2983 44.9975 4.2983C44.4373 4.2983 43.9982 4.42093 43.68 4.66619C43.3618 4.91146 43.1381 5.1733 43.0088 5.4517L41.8952 5.05398C42.0941 4.58996 42.3592 4.22869 42.6907 3.97017C43.0254 3.70833 43.39 3.52604 43.7844 3.4233C44.1821 3.31723 44.5732 3.2642 44.9577 3.2642C45.203 3.2642 45.4847 3.29403 45.8029 3.35369C46.1244 3.41004 46.4343 3.5277 46.7326 3.70668C47.0342 3.88565 47.2844 4.15578 47.4833 4.51705C47.6821 4.87831 47.7816 5.36222 47.7816 5.96875V11H46.6083V9.96591H46.5486C46.4691 10.1316 46.3365 10.3089 46.1509 10.4979C45.9653 10.6868 45.7184 10.8475 45.4101 10.9801C45.1019 11.1127 44.7257 11.179 44.2816 11.179ZM44.4605 10.125C44.9246 10.125 45.3157 10.0339 45.6338 9.85156C45.9553 9.66927 46.1973 9.43395 46.3597 9.1456C46.5254 8.85724 46.6083 8.55398 46.6083 8.2358V7.16193C46.5586 7.22159 46.4492 7.27628 46.2802 7.32599C46.1144 7.3724 45.9222 7.41383 45.7034 7.45028C45.488 7.48343 45.2775 7.51326 45.0721 7.53977C44.8699 7.56297 44.7058 7.58286 44.5799 7.59943C44.2749 7.6392 43.9899 7.70384 43.7248 7.79332C43.4629 7.8795 43.2508 8.01042 43.0884 8.18608C42.9293 8.35843 42.8498 8.59375 42.8498 8.89205C42.8498 9.29972 43.0006 9.60795 43.3022 9.81676C43.6071 10.0223 43.9932 10.125 44.4605 10.125ZM55.2322 5.07386L54.1782 5.37216C54.1119 5.1965 54.0141 5.0258 53.8849 4.86009C53.7589 4.69105 53.5866 4.55185 53.3678 4.44247C53.1491 4.3331 52.869 4.27841 52.5276 4.27841C52.0603 4.27841 51.6709 4.38613 51.3593 4.60156C51.0511 4.81368 50.8969 5.08381 50.8969 5.41193C50.8969 5.7036 51.003 5.93395 51.2151 6.10298C51.4272 6.27202 51.7587 6.41288 52.2094 6.52557L53.343 6.80398C54.0257 6.9697 54.5345 7.22325 54.8692 7.56463C55.204 7.9027 55.3714 8.33854 55.3714 8.87216C55.3714 9.30966 55.2454 9.70076 54.9935 10.0455C54.745 10.3902 54.3969 10.6619 53.9495 10.8608C53.5021 11.0597 52.9817 11.1591 52.3884 11.1591C51.6095 11.1591 50.9649 10.9901 50.4545 10.652C49.9441 10.3139 49.6209 9.82008 49.485 9.17045L50.5986 8.89205C50.7047 9.30303 50.9052 9.61127 51.2002 9.81676C51.4985 10.0223 51.8879 10.125 52.3685 10.125C52.9154 10.125 53.3496 10.009 53.6711 9.77699C53.9959 9.54167 54.1583 9.25994 54.1583 8.93182C54.1583 8.66667 54.0655 8.4446 53.8799 8.26562C53.6943 8.08333 53.4093 7.94744 53.0248 7.85795L51.7521 7.55966C51.0527 7.39394 50.539 7.13707 50.2109 6.78906C49.8861 6.43774 49.7236 5.99858 49.7236 5.47159C49.7236 5.04072 49.8446 4.65956 50.0866 4.32812C50.3318 3.99669 50.6649 3.73651 51.0859 3.54758C51.5101 3.35866 51.9907 3.2642 52.5276 3.2642C53.2833 3.2642 53.8766 3.42992 54.3075 3.76136C54.7416 4.0928 55.0499 4.5303 55.2322 5.07386ZM60.3586 3.36364V4.35795H56.4012V3.36364H60.3586ZM57.5546 1.53409H58.7279V8.8125C58.7279 9.14394 58.7759 9.39252 58.8721 9.55824C58.9715 9.72064 59.0974 9.83002 59.2499 9.88636C59.4057 9.93939 59.5697 9.96591 59.7421 9.96591C59.8713 9.96591 59.9774 9.95928 60.0603 9.94602C60.1431 9.92945 60.2094 9.91619 60.2591 9.90625L60.4978 10.9602C60.4182 10.9901 60.3072 11.0199 60.1647 11.0497C60.0221 11.0829 59.8415 11.0994 59.6228 11.0994C59.2913 11.0994 58.9665 11.0282 58.6483 10.8857C58.3335 10.7431 58.0716 10.526 57.8628 10.2344C57.6573 9.94271 57.5546 9.57481 57.5546 9.13068V1.53409Z" fill="#3A3335"/>
</svg>
