<svg width="14" height="5" viewBox="0 0 14 5" fill="none" xmlns="http://www.w3.org/2000/svg">
<path d="M5.94531 1.44531C6.25 1.14062 6.60156 0.988281 7 0.988281C7.39844 0.988281 7.75 1.14062 8.05469 1.44531C8.35938 1.75 8.51172 2.10156 8.51172 2.5C8.51172 2.89844 8.35938 3.25 8.05469 3.55469C7.75 3.85938 7.39844 4.01172 7 4.01172C6.60156 4.01172 6.25 3.85938 5.94531 3.55469C5.64062 3.25 5.48828 2.89844 5.48828 2.5C5.48828 2.10156 5.64062 1.75 5.94531 1.44531ZM10.4453 1.44531C10.75 1.14062 11.1016 0.988281 11.5 0.988281C11.8984 0.988281 12.25 1.14062 12.5547 1.44531C12.8594 1.75 13.0117 2.10156 13.0117 2.5C13.0117 2.89844 12.8594 3.25 12.5547 3.55469C12.25 3.85938 11.8984 4.01172 11.5 4.01172C11.1016 4.01172 10.75 3.85938 10.4453 3.55469C10.1406 3.25 9.98828 2.89844 9.98828 2.5C9.98828 2.10156 10.1406 1.75 10.4453 1.44531ZM1.44531 1.44531C1.75 1.14062 2.10156 0.988281 2.5 0.988281C2.89844 0.988281 3.25 1.14062 3.55469 1.44531C3.85938 1.75 4.01172 2.10156 4.01172 2.5C4.01172 2.89844 3.85938 3.25 3.55469 3.55469C3.25 3.85938 2.89844 4.01172 2.5 4.01172C2.10156 4.01172 1.75 3.85938 1.44531 3.55469C1.14062 3.25 0.988281 2.89844 0.988281 2.5C0.988281 2.10156 1.14062 1.75 1.44531 1.44531Z" fill="white"/>
</svg>
