<svg width="14" height="15" viewBox="0 0 14 15" fill="none" xmlns="http://www.w3.org/2000/svg">
<path d="M7 14.3587C8.26389 14.3587 9.43866 14.0427 10.5243 13.4108C11.5938 12.795 12.4363 11.9524 13.0521 10.883C13.684 9.79735 14 8.62259 14 7.3587C14 6.88879 13.9514 6.41888 13.8542 5.94897L13.8299 5.80314H7V8.13647H11.6667C11.537 8.86564 11.2494 9.52594 10.8038 10.1174C10.3582 10.7088 9.80324 11.1747 9.13889 11.5149C8.47454 11.8552 7.76157 12.0254 7 12.0254C6.15741 12.0254 5.37963 11.8147 4.66667 11.3934C3.9537 10.9721 3.38657 10.405 2.96528 9.69203C2.54398 8.97907 2.33333 8.20129 2.33333 7.3587C2.33333 6.5161 2.54398 5.73833 2.96528 5.02536C3.38657 4.3124 3.9537 3.74527 4.66667 3.32397C5.37963 2.90268 6.15741 2.69203 7 2.69203C7.56713 2.69203 8.114 2.7933 8.64062 2.99585C9.16725 3.1984 9.6331 3.47791 10.0382 3.83439L11.7153 2.18161C11.0833 1.61448 10.3623 1.16888 9.55208 0.844807C8.7419 0.520733 7.8912 0.358696 7 0.358696C5.73611 0.358696 4.56134 0.674668 3.47569 1.30661C2.40625 1.92235 1.56366 2.76495 0.947917 3.83439C0.315972 4.92004 0 6.09481 0 7.3587C0 8.62259 0.315972 9.79735 0.947917 10.883C1.56366 11.9524 2.40625 12.795 3.47569 13.4108C4.56134 14.0427 5.73611 14.3587 7 14.3587Z" fill="#EB5E55"/>
</svg>