<svg width="168" height="44" viewBox="0 0 168 44" fill="none" xmlns="http://www.w3.org/2000/svg">
<rect width="44" height="44" rx="12" fill="#EB5E55"/>
<mask id="mask0_0_13325" style="mask-type:alpha" maskUnits="userSpaceOnUse" x="0" y="0" width="44" height="44">
<rect width="44" height="44" rx="12" fill="white"/>
</mask>
<g mask="url(#mask0_0_13325)">
<path fill-rule="evenodd" clip-rule="evenodd" d="M19.8132 22.3328V33.9997H17.4839V20.5057H26.5161V29.2725H24.1868V22.3328H19.8132ZM32.1613 29.2725V29.2743H26.5161V29.2725H32.1613ZM32.1613 29.2725V19.0304L22 10.5324L11.8387 19.0304V33.9997H9.97267V20.8792L8.57175 22.0712L7 20.7338L21.2141 8.6396L22 8L22.7859 8.6396L37 20.7338L35.4282 22.0712L34.0273 20.8792V29.2725H32.1613ZM11.8387 33.9997H17.4839V34.0015H11.8387V33.9997Z" fill="white"/>
</g>
<path d="M56.3906 30V14H62.7031C63.9115 14 64.9427 14.2161 65.7969 14.6484C66.6563 15.0755 67.3099 15.6823 67.7578 16.4688C68.2109 17.25 68.4375 18.1693 68.4375 19.2266C68.4375 20.2891 68.2083 21.2031 67.75 21.9687C67.2917 22.7292 66.6276 23.3125 65.7578 23.7187C64.8932 24.125 63.8464 24.3281 62.6172 24.3281H58.3906V21.6094H62.0703C62.7161 21.6094 63.2526 21.5208 63.6797 21.3438C64.1068 21.1667 64.4245 20.901 64.6328 20.5469C64.8464 20.1927 64.9531 19.7526 64.9531 19.2266C64.9531 18.6953 64.8464 18.2474 64.6328 17.8828C64.4245 17.5182 64.1042 17.2422 63.6719 17.0547C63.2448 16.862 62.7057 16.7656 62.0547 16.7656H59.7734V30H56.3906ZM65.0313 22.7188L69.0078 30H65.2734L61.3828 22.7188H65.0313ZM75.9941 30.2344C74.7806 30.2344 73.7311 29.9766 72.8457 29.4609C71.9655 28.9401 71.2858 28.2161 70.8066 27.2891C70.3275 26.3568 70.0879 25.276 70.0879 24.0469C70.0879 22.8073 70.3275 21.724 70.8066 20.7969C71.2858 19.8646 71.9655 19.1406 72.8457 18.625C73.7311 18.1042 74.7806 17.8438 75.9941 17.8438C77.2077 17.8438 78.2546 18.1042 79.1348 18.625C80.0202 19.1406 80.7025 19.8646 81.1816 20.7969C81.6608 21.724 81.9004 22.8073 81.9004 24.0469C81.9004 25.276 81.6608 26.3568 81.1816 27.2891C80.7025 28.2161 80.0202 28.9401 79.1348 29.4609C78.2546 29.9766 77.2077 30.2344 75.9941 30.2344ZM76.0098 27.6562C76.5618 27.6562 77.0228 27.5 77.3926 27.1875C77.7624 26.8698 78.041 26.4375 78.2285 25.8906C78.4212 25.3437 78.5176 24.7214 78.5176 24.0234C78.5176 23.3255 78.4212 22.7031 78.2285 22.1562C78.041 21.6094 77.7624 21.1771 77.3926 20.8594C77.0228 20.5417 76.5618 20.3828 76.0098 20.3828C75.4525 20.3828 74.9837 20.5417 74.6035 20.8594C74.2285 21.1771 73.9447 21.6094 73.752 22.1562C73.5645 22.7031 73.4707 23.3255 73.4707 24.0234C73.4707 24.7214 73.5645 25.3437 73.752 25.8906C73.9447 26.4375 74.2285 26.8698 74.6035 27.1875C74.9837 27.5 75.4525 27.6562 76.0098 27.6562ZM89.4863 30.2344C88.2728 30.2344 87.2233 29.9766 86.3379 29.4609C85.4577 28.9401 84.778 28.2161 84.2988 27.2891C83.8197 26.3568 83.5801 25.276 83.5801 24.0469C83.5801 22.8073 83.8197 21.724 84.2988 20.7969C84.778 19.8646 85.4577 19.1406 86.3379 18.625C87.2233 18.1042 88.2728 17.8438 89.4863 17.8438C90.6999 17.8438 91.7467 18.1042 92.627 18.625C93.5124 19.1406 94.1947 19.8646 94.6738 20.7969C95.153 21.724 95.3926 22.8073 95.3926 24.0469C95.3926 25.276 95.153 26.3568 94.6738 27.2891C94.1947 28.2161 93.5124 28.9401 92.627 29.4609C91.7467 29.9766 90.6999 30.2344 89.4863 30.2344ZM89.502 27.6562C90.054 27.6562 90.515 27.5 90.8848 27.1875C91.2546 26.8698 91.5332 26.4375 91.7207 25.8906C91.9134 25.3437 92.0098 24.7214 92.0098 24.0234C92.0098 23.3255 91.9134 22.7031 91.7207 22.1562C91.5332 21.6094 91.2546 21.1771 90.8848 20.8594C90.515 20.5417 90.054 20.3828 89.502 20.3828C88.9447 20.3828 88.4759 20.5417 88.0957 20.8594C87.7207 21.1771 87.4368 21.6094 87.2441 22.1562C87.0566 22.7031 86.9629 23.3255 86.9629 24.0234C86.9629 24.7214 87.0566 25.3437 87.2441 25.8906C87.4368 26.4375 87.7207 26.8698 88.0957 27.1875C88.4759 27.5 88.9447 27.6562 89.502 27.6562ZM97.5566 30V18H100.729V20.1172H100.869C101.119 19.4141 101.536 18.8594 102.119 18.4531C102.702 18.0469 103.4 17.8438 104.213 17.8438C105.036 17.8438 105.736 18.0495 106.314 18.4609C106.893 18.8672 107.278 19.4193 107.471 20.1172H107.596C107.84 19.4297 108.283 18.8802 108.924 18.4687C109.57 18.0521 110.333 17.8438 111.213 17.8438C112.333 17.8438 113.242 18.2005 113.939 18.9141C114.643 19.6224 114.994 20.6276 114.994 21.9297V30H111.674V22.5859C111.674 21.9193 111.497 21.4193 111.143 21.0859C110.788 20.7526 110.346 20.5859 109.814 20.5859C109.21 20.5859 108.739 20.7786 108.4 21.1641C108.062 21.5443 107.893 22.0469 107.893 22.6719V30H104.666V22.5156C104.666 21.9271 104.497 21.4583 104.158 21.1094C103.825 20.7604 103.385 20.5859 102.838 20.5859C102.468 20.5859 102.135 20.6797 101.838 20.8672C101.546 21.0495 101.314 21.3073 101.143 21.6406C100.971 21.9687 100.885 22.3542 100.885 22.7969V30H97.5566ZM127.607 21.4219L124.561 21.6094C124.508 21.349 124.396 21.1146 124.225 20.9062C124.053 20.6927 123.826 20.5234 123.545 20.3984C123.269 20.2682 122.938 20.2031 122.553 20.2031C122.037 20.2031 121.602 20.3125 121.248 20.5312C120.894 20.7448 120.717 21.0312 120.717 21.3906C120.717 21.6771 120.831 21.9193 121.061 22.1172C121.29 22.3151 121.683 22.474 122.24 22.5937L124.412 23.0312C125.579 23.2708 126.449 23.6562 127.021 24.1875C127.594 24.7187 127.881 25.4167 127.881 26.2812C127.881 27.0677 127.649 27.7578 127.186 28.3516C126.727 28.9453 126.097 29.4089 125.295 29.7422C124.498 30.0703 123.579 30.2344 122.537 30.2344C120.949 30.2344 119.683 29.9036 118.74 29.2422C117.803 28.5755 117.253 27.6693 117.092 26.5234L120.365 26.3516C120.464 26.8359 120.704 27.2057 121.084 27.4609C121.464 27.7109 121.951 27.8359 122.545 27.8359C123.128 27.8359 123.597 27.724 123.951 27.5C124.311 27.2708 124.493 26.9766 124.498 26.6172C124.493 26.3151 124.365 26.0677 124.115 25.875C123.865 25.6771 123.48 25.526 122.959 25.4219L120.881 25.0078C119.709 24.7734 118.837 24.3672 118.264 23.7891C117.696 23.2109 117.412 22.474 117.412 21.5781C117.412 20.8073 117.62 20.1432 118.037 19.5859C118.459 19.0286 119.05 18.599 119.811 18.2969C120.576 17.9948 121.472 17.8438 122.498 17.8438C124.014 17.8438 125.206 18.1641 126.076 18.8047C126.951 19.4453 127.462 20.3177 127.607 21.4219ZM136.43 18V20.5H129.023V18H136.43ZM130.719 30V17.1328C130.719 16.263 130.888 15.5417 131.227 14.9687C131.57 14.3958 132.039 13.9661 132.633 13.6797C133.227 13.3932 133.901 13.25 134.656 13.25C135.167 13.25 135.633 13.2891 136.055 13.3672C136.482 13.4453 136.799 13.5156 137.008 13.5781L136.414 16.0781C136.284 16.0365 136.122 15.9974 135.93 15.9609C135.742 15.9245 135.549 15.9062 135.352 15.9062C134.862 15.9062 134.521 16.0208 134.328 16.25C134.135 16.474 134.039 16.7891 134.039 17.1953V30H130.719ZM140.518 34.4766C140.096 34.4766 139.7 34.4427 139.33 34.375C138.965 34.3125 138.663 34.2344 138.424 34.1406L139.174 31.6484C139.762 31.8307 140.257 31.8776 140.658 31.7891C141.064 31.7057 141.385 31.3932 141.619 30.8516L141.814 30.3438L137.51 18H141.01L143.494 26.8125H143.619L146.127 18L149.65 18.0156L144.986 31.2969C144.762 31.9375 144.458 32.4948 144.072 32.9688C143.692 33.4479 143.21 33.8177 142.627 34.0781C142.044 34.3438 141.34 34.4766 140.518 34.4766Z" fill="#EB5E55"/>
</svg>
