<svg width="16" height="14" viewBox="0 0 16 14" fill="none" xmlns="http://www.w3.org/2000/svg">
<path d="M14.3437 3.8587C14.3645 3.94203 14.375 4.07745 14.375 4.26494C14.375 5.76494 14.0104 7.21285 13.2812 8.60868C12.5312 10.0878 11.4791 11.2649 10.125 12.1399C8.64581 13.1191 6.9479 13.6087 5.03124 13.6087C3.19791 13.6087 1.52083 13.1191 0 12.1399C0.229166 12.1608 0.489582 12.1712 0.781248 12.1712C2.30208 12.1712 3.66666 11.7024 4.87499 10.7649C4.14582 10.7649 3.5052 10.5514 2.95312 10.1243C2.40104 9.69722 2.02083 9.16077 1.8125 8.51493C2.02083 8.53577 2.21874 8.54618 2.40624 8.54618C2.69791 8.54618 2.98958 8.51494 3.28124 8.45244C2.53124 8.28577 1.90625 7.90035 1.40625 7.29619C0.906248 6.69202 0.656248 6.00452 0.656248 5.23369V5.17119C1.11458 5.44203 1.60416 5.58786 2.12499 5.60869C1.6875 5.29619 1.33333 4.90036 1.0625 4.42119C0.791665 3.94203 0.656248 3.41599 0.656248 2.84307C0.656248 2.27016 0.812498 1.72328 1.125 1.20245C1.9375 2.22328 2.93228 3.03578 4.10936 3.63995C5.28645 4.24411 6.54165 4.57744 7.87498 4.63994C7.83331 4.38994 7.81248 4.13995 7.81248 3.88995C7.81248 3.30661 7.95831 2.75974 8.24998 2.24932C8.54165 1.73891 8.93748 1.33787 9.43748 1.0462C9.93748 0.754537 10.4791 0.608704 11.0625 0.608704C11.5416 0.608704 11.9843 0.702453 12.3906 0.889953C12.7968 1.07745 13.1562 1.32745 13.4687 1.63995C14.2187 1.49412 14.9166 1.2337 15.5625 0.858703C15.3125 1.62953 14.8333 2.2337 14.125 2.6712C14.75 2.58787 15.375 2.41078 16 2.13995C15.5416 2.80661 14.9895 3.37953 14.3437 3.8587Z" fill="#EB5E55"/>
</svg>