<svg width="14" height="4" viewBox="0 0 14 4" fill="none" xmlns="http://www.w3.org/2000/svg">
<path d="M5.82812 0.828125C6.16667 0.489583 6.55729 0.320312 7 0.320312C7.44271 0.320312 7.83333 0.489583 8.17188 0.828125C8.51042 1.16667 8.67969 1.55729 8.67969 2C8.67969 2.44271 8.51042 2.83333 8.17188 3.17188C7.83333 3.51042 7.44271 3.67969 7 3.67969C6.55729 3.67969 6.16667 3.51042 5.82812 3.17188C5.48958 2.83333 5.32031 2.44271 5.32031 2C5.32031 1.55729 5.48958 1.16667 5.82812 0.828125ZM10.8281 0.828125C11.1667 0.489583 11.5573 0.320312 12 0.320312C12.4427 0.320312 12.8333 0.489583 13.1719 0.828125C13.5104 1.16667 13.6797 1.55729 13.6797 2C13.6797 2.44271 13.5104 2.83333 13.1719 3.17188C12.8333 3.51042 12.4427 3.67969 12 3.67969C11.5573 3.67969 11.1667 3.51042 10.8281 3.17188C10.4896 2.83333 10.3203 2.44271 10.3203 2C10.3203 1.55729 10.4896 1.16667 10.8281 0.828125ZM0.828125 0.828125C1.16667 0.489583 1.55729 0.320312 2 0.320312C2.44271 0.320312 2.83333 0.489583 3.17188 0.828125C3.51042 1.16667 3.67969 1.55729 3.67969 2C3.67969 2.44271 3.51042 2.83333 3.17188 3.17188C2.83333 3.51042 2.44271 3.67969 2 3.67969C1.55729 3.67969 1.16667 3.51042 0.828125 3.17188C0.489583 2.83333 0.320312 2.44271 0.320312 2C0.320312 1.55729 0.489583 1.16667 0.828125 0.828125Z" fill="#908E8E"/>
</svg>
